<?xml version="1.0" standalone="no"?><!DOCTYPE svg PUBLIC "-//W3C//DTD SVG 1.1//EN" "http://www.w3.org/Graphics/SVG/1.1/DTD/svg11.dtd"><svg class="icon" width="200px" height="200.00px" viewBox="0 0 1024 1024" version="1.1" xmlns="http://www.w3.org/2000/svg"><path fill="#333333" d="M974.336 358.912v-1.536c-0.512-2.048-1.024-4.096-1.536-5.632L892.928 153.6c-13.824-40.96-53.248-66.048-99.84-66.56H233.472c-47.104 0-83.456 25.088-96.768 64.512L51.2 354.304c-0.512 1.024-1.024 3.072-1.024 4.608C44.032 377.856 40.96 397.312 40.96 417.28c0 69.12 37.888 132.096 98.816 164.864 25.088 13.312 54.784 19.968 88.064 19.968 55.808 0 107.52-24.576 142.848-66.56 34.816 41.472 86.528 66.048 141.824 66.048 55.296-0.512 106.496-24.576 141.312-66.56 35.328 41.984 87.04 66.048 142.848 66.048 33.792 0 64-7.168 89.6-20.992 59.904-32.768 97.28-95.744 97.28-163.84 0-19.456-3.072-39.424-9.216-57.344z m-120.832 170.496c-15.36 8.192-34.816 12.8-56.832 12.8-41.472 0-79.36-20.992-101.376-56.32-1.536-3.584-4.096-8.704-9.216-14.336-5.632-6.144-15.872-13.824-32.768-13.824-13.824 0-25.6 5.632-32.768 13.824-4.608 5.12-7.168 10.24-8.704 13.824-22.016 35.328-59.392 56.32-99.84 56.832-40.96 0-78.848-21.504-100.352-56.832-1.536-3.072-4.096-8.192-8.192-12.8-15.872-18.944-51.712-17.92-65.536-1.536-5.12 5.632-7.68 11.264-9.728 14.848-22.016 35.328-59.904 56.32-100.864 56.32-22.016 0-40.96-4.096-55.808-12.288-38.912-20.48-71.68-69.632-71.68-113.664 0-12.8 2.048-26.112 6.656-38.912 0.512-1.024 0.512-2.048 1.024-3.072l84.48-207.872c1.536-5.12 7.168-20.48 33.28-20.48h577.024c10.752 0.512 29.184 2.56 35.84 22.016L916.48 373.76c0.512 1.536 0.512 2.56 1.024 4.096 4.608 12.8 6.656 25.6 6.656 38.912 0 43.008-32.256 91.648-70.656 112.64z m29.696 100.352c-18.944 0-29.696 15.36-29.696 33.792v189.44c0 10.752-8.704 18.944-18.944 18.944l-656.896 0.512c-10.752 0-18.944-8.704-18.944-18.944l-0.512-186.368c0-18.944-10.752-33.792-29.696-33.792-18.944 0-29.696 15.36-29.696 33.792v181.76c0 47.616 38.912 87.04 87.04 87.04l640-0.512c48.128 0 87.04-38.912 87.04-87.04v-185.344c0-17.92-10.752-33.28-29.696-33.28zM778.24 383.488H233.984c-18.944 0-33.792-10.752-33.792-29.696 0-18.944 15.36-29.696 33.792-29.696H778.24c18.944 0 33.792 10.752 33.792 29.696 0 18.944-15.36 29.696-33.792 29.696z" /></svg>